<svg width="577" height="472" viewBox="0 0 577 472" fill="none" xmlns="http://www.w3.org/2000/svg">
<mask id="path-1-inside-1" fill="white">
<path d="M568.812 307.921C563.128 306.397 556.919 309.633 555.285 315.73L555.03 316.684L529.473 309.837C531.065 301.296 531.906 292.495 531.906 283.5C531.906 274.504 531.065 265.702 529.473 257.16L555.029 250.313L555.285 251.267C556.919 257.364 563.128 260.601 568.812 259.076C574.704 257.498 578.201 251.441 576.621 245.549L570.393 222.304C568.813 216.412 562.761 212.914 556.866 214.495C550.973 216.073 547.477 222.13 549.056 228.022L549.312 228.976L523.748 235.826C517.791 218.977 508.774 203.564 497.362 190.259L516.124 171.497L516.823 172.195C521.135 176.508 528.13 176.51 532.443 172.195C536.756 167.882 536.756 160.889 532.443 156.576L515.426 139.559C511.114 135.246 504.12 135.246 499.807 139.559C495.493 143.872 495.493 150.865 499.807 155.179L500.505 155.878L481.743 174.639C468.437 163.226 453.022 154.209 436.173 148.253L443.022 122.69L443.977 122.946C450.099 124.587 455.989 120.79 457.504 115.136C459.082 109.244 455.586 103.188 449.694 101.609L426.449 95.3808C420.556 93.8013 414.5 97.2989 412.922 103.19C411.343 109.082 414.839 115.139 420.732 116.717L421.686 116.973L414.838 142.529C406.297 140.937 397.496 140.097 388.501 140.097C379.506 140.097 370.705 140.937 362.164 142.529L355.316 116.973L356.27 116.717C362.162 115.139 365.659 109.082 364.08 103.19C362.502 97.2974 356.446 93.7999 350.553 95.3793L327.308 101.608C321.416 103.187 317.92 109.243 319.499 115.135C321.013 120.789 326.904 124.586 333.026 122.945L333.98 122.689L340.829 148.251C323.98 154.208 308.566 163.225 295.26 174.638L276.497 155.876L277.196 155.177C281.509 150.864 281.509 143.871 277.196 139.558C272.883 135.244 265.89 135.244 261.576 139.558L244.56 156.574C240.246 160.888 240.246 167.88 244.56 172.194C248.873 176.508 255.867 176.507 260.179 172.194L260.878 171.495L279.641 190.258C268.228 203.563 259.212 218.977 253.255 235.825L227.691 228.974L227.947 228.02C229.525 222.128 226.029 216.072 220.137 214.493C214.242 212.913 208.189 216.41 206.61 222.303L200.38 245.55C198.801 251.442 202.297 257.498 208.189 259.077C213.874 260.601 220.083 257.364 221.716 251.268L221.972 250.313L247.528 257.161C245.937 265.703 245.095 274.505 245.095 283.5C245.095 292.495 245.936 301.297 247.528 309.837L221.971 316.685L221.716 315.731C220.082 309.633 213.872 306.397 208.189 307.921C202.296 309.5 198.8 315.556 200.379 321.449L206.608 344.694C208.187 350.586 214.24 354.083 220.135 352.503C226.027 350.925 229.523 344.868 227.944 338.976L227.689 338.022L253.251 331.173C259.208 348.022 268.224 363.436 279.638 376.742L260.875 395.505L260.176 394.806C255.864 390.493 248.87 390.492 244.557 394.806C240.243 399.119 240.243 406.112 244.557 410.426L261.573 427.442C265.886 431.756 272.88 431.756 277.193 427.442C281.506 423.129 281.506 416.136 277.193 411.823L276.494 411.124L295.257 392.362C308.563 403.775 323.977 412.792 340.827 418.749L333.977 444.311L333.023 444.055C326.901 442.415 321.01 446.211 319.496 451.865C317.917 457.757 321.413 463.813 327.305 465.392L350.551 471.621C356.443 473.2 362.5 469.703 364.078 463.811C365.656 457.919 362.16 451.863 356.268 450.284L355.314 450.029L362.162 424.472C370.702 426.064 379.504 426.905 388.499 426.905C397.494 426.905 406.295 426.064 414.836 424.472L421.684 450.029L420.729 450.284C414.837 451.863 411.341 457.919 412.92 463.811C414.498 469.703 420.554 473.2 426.447 471.621L449.692 465.392C455.584 463.813 459.08 457.757 457.502 451.865C455.987 446.211 450.096 442.414 443.974 444.055L443.02 444.311L436.171 418.749C453.02 412.792 468.435 403.775 481.741 392.362L500.503 411.124L499.804 411.823C495.491 416.136 495.491 423.129 499.804 427.442C504.117 431.756 511.111 431.756 515.424 427.442L532.441 410.426C536.754 406.112 536.754 399.119 532.441 394.806C528.127 390.492 521.133 390.493 516.821 394.806L516.122 395.505L497.36 376.742C508.773 363.436 517.79 348.022 523.746 331.173L549.309 338.022L549.053 338.976C547.474 344.868 550.97 350.925 556.863 352.503C562.758 354.083 568.811 350.586 570.39 344.694L576.618 321.449C578.201 315.556 574.705 309.499 568.812 307.921V307.921ZM388.501 404.816C321.608 404.816 267.185 350.394 267.185 283.5C267.185 216.607 321.608 162.185 388.501 162.185C455.394 162.185 509.816 216.607 509.816 283.5C509.816 350.394 455.394 404.816 388.501 404.816Z"/>
</mask>
<path d="M568.812 307.921C563.128 306.397 556.919 309.633 555.285 315.73L555.03 316.684L529.473 309.837C531.065 301.296 531.906 292.495 531.906 283.5C531.906 274.504 531.065 265.702 529.473 257.16L555.029 250.313L555.285 251.267C556.919 257.364 563.128 260.601 568.812 259.076C574.704 257.498 578.201 251.441 576.621 245.549L570.393 222.304C568.813 216.412 562.761 212.914 556.866 214.495C550.973 216.073 547.477 222.13 549.056 228.022L549.312 228.976L523.748 235.826C517.791 218.977 508.774 203.564 497.362 190.259L516.124 171.497L516.823 172.195C521.135 176.508 528.13 176.51 532.443 172.195C536.756 167.882 536.756 160.889 532.443 156.576L515.426 139.559C511.114 135.246 504.12 135.246 499.807 139.559C495.493 143.872 495.493 150.865 499.807 155.179L500.505 155.878L481.743 174.639C468.437 163.226 453.022 154.209 436.173 148.253L443.022 122.69L443.977 122.946C450.099 124.587 455.989 120.79 457.504 115.136C459.082 109.244 455.586 103.188 449.694 101.609L426.449 95.3808C420.556 93.8013 414.5 97.2989 412.922 103.19C411.343 109.082 414.839 115.139 420.732 116.717L421.686 116.973L414.838 142.529C406.297 140.937 397.496 140.097 388.501 140.097C379.506 140.097 370.705 140.937 362.164 142.529L355.316 116.973L356.27 116.717C362.162 115.139 365.659 109.082 364.08 103.19C362.502 97.2974 356.446 93.7999 350.553 95.3793L327.308 101.608C321.416 103.187 317.92 109.243 319.499 115.135C321.013 120.789 326.904 124.586 333.026 122.945L333.98 122.689L340.829 148.251C323.98 154.208 308.566 163.225 295.26 174.638L276.497 155.876L277.196 155.177C281.509 150.864 281.509 143.871 277.196 139.558C272.883 135.244 265.89 135.244 261.576 139.558L244.56 156.574C240.246 160.888 240.246 167.88 244.56 172.194C248.873 176.508 255.867 176.507 260.179 172.194L260.878 171.495L279.641 190.258C268.228 203.563 259.212 218.977 253.255 235.825L227.691 228.974L227.947 228.02C229.525 222.128 226.029 216.072 220.137 214.493C214.242 212.913 208.189 216.41 206.61 222.303L200.38 245.55C198.801 251.442 202.297 257.498 208.189 259.077C213.874 260.601 220.083 257.364 221.716 251.268L221.972 250.313L247.528 257.161C245.937 265.703 245.095 274.505 245.095 283.5C245.095 292.495 245.936 301.297 247.528 309.837L221.971 316.685L221.716 315.731C220.082 309.633 213.872 306.397 208.189 307.921C202.296 309.5 198.8 315.556 200.379 321.449L206.608 344.694C208.187 350.586 214.24 354.083 220.135 352.503C226.027 350.925 229.523 344.868 227.944 338.976L227.689 338.022L253.251 331.173C259.208 348.022 268.224 363.436 279.638 376.742L260.875 395.505L260.176 394.806C255.864 390.493 248.87 390.492 244.557 394.806C240.243 399.119 240.243 406.112 244.557 410.426L261.573 427.442C265.886 431.756 272.88 431.756 277.193 427.442C281.506 423.129 281.506 416.136 277.193 411.823L276.494 411.124L295.257 392.362C308.563 403.775 323.977 412.792 340.827 418.749L333.977 444.311L333.023 444.055C326.901 442.415 321.01 446.211 319.496 451.865C317.917 457.757 321.413 463.813 327.305 465.392L350.551 471.621C356.443 473.2 362.5 469.703 364.078 463.811C365.656 457.919 362.16 451.863 356.268 450.284L355.314 450.029L362.162 424.472C370.702 426.064 379.504 426.905 388.499 426.905C397.494 426.905 406.295 426.064 414.836 424.472L421.684 450.029L420.729 450.284C414.837 451.863 411.341 457.919 412.92 463.811C414.498 469.703 420.554 473.2 426.447 471.621L449.692 465.392C455.584 463.813 459.08 457.757 457.502 451.865C455.987 446.211 450.096 442.414 443.974 444.055L443.02 444.311L436.171 418.749C453.02 412.792 468.435 403.775 481.741 392.362L500.503 411.124L499.804 411.823C495.491 416.136 495.491 423.129 499.804 427.442C504.117 431.756 511.111 431.756 515.424 427.442L532.441 410.426C536.754 406.112 536.754 399.119 532.441 394.806C528.127 390.492 521.133 390.493 516.821 394.806L516.122 395.505L497.36 376.742C508.773 363.436 517.79 348.022 523.746 331.173L549.309 338.022L549.053 338.976C547.474 344.868 550.97 350.925 556.863 352.503C562.758 354.083 568.811 350.586 570.39 344.694L576.618 321.449C578.201 315.556 574.705 309.499 568.812 307.921V307.921ZM388.501 404.816C321.608 404.816 267.185 350.394 267.185 283.5C267.185 216.607 321.608 162.185 388.501 162.185C455.394 162.185 509.816 216.607 509.816 283.5C509.816 350.394 455.394 404.816 388.501 404.816Z" stroke="white" stroke-opacity="0.5" stroke-width="4" mask="url(#path-1-inside-1)"/>
<path d="M398.546 200.688C398.546 206.235 394.049 210.732 388.501 210.732C382.953 210.732 378.456 206.235 378.456 200.688C378.456 195.14 382.953 190.643 388.501 190.643C394.049 190.643 398.546 195.14 398.546 200.688Z" stroke="white" stroke-opacity="0.5" stroke-width="2"/>
<path d="M398.546 366.313C398.546 371.861 394.049 376.358 388.501 376.358C382.953 376.358 378.456 371.861 378.456 366.313C378.456 360.766 382.953 356.269 388.501 356.269C394.049 356.269 398.546 360.766 398.546 366.313Z" stroke="white" stroke-opacity="0.5" stroke-width="2"/>
<path d="M374.885 307.161C374.885 312.708 370.388 317.206 364.84 317.206C359.293 317.206 354.795 312.708 354.795 307.161C354.795 301.613 359.293 297.116 364.84 297.116C370.388 297.116 374.885 301.613 374.885 307.161Z" stroke="white" stroke-opacity="0.5" stroke-width="2"/>
<path d="M422.206 307.161C422.206 312.708 417.708 317.206 412.161 317.206C406.613 317.206 402.116 312.708 402.116 307.161C402.116 301.613 406.613 297.116 412.161 297.116C417.708 297.116 422.206 301.613 422.206 307.161Z" stroke="white" stroke-opacity="0.5" stroke-width="2"/>
<path d="M422.206 259.84C422.206 265.388 417.708 269.885 412.161 269.885C406.613 269.885 402.116 265.388 402.116 259.84C402.116 254.292 406.613 249.795 412.161 249.795C417.708 249.795 422.206 254.292 422.206 259.84Z" stroke="white" stroke-opacity="0.5" stroke-width="2"/>
<path d="M374.885 259.84C374.885 265.388 370.388 269.885 364.84 269.885C359.293 269.885 354.795 265.388 354.795 259.84C354.795 254.292 359.293 249.795 364.84 249.795C370.388 249.795 374.885 254.292 374.885 259.84Z" stroke="white" stroke-opacity="0.5" stroke-width="2"/>
<path d="M481.36 283.5C481.36 289.048 476.863 293.545 471.315 293.545C465.767 293.545 461.27 289.048 461.27 283.5C461.27 277.953 465.767 273.455 471.315 273.455C476.863 273.455 481.36 277.953 481.36 283.5Z" stroke="white" stroke-opacity="0.5" stroke-width="2"/>
<path d="M315.733 283.5C315.733 289.048 311.236 293.545 305.688 293.545C300.14 293.545 295.643 289.048 295.643 283.5C295.643 277.953 300.14 273.455 305.688 273.455C311.236 273.455 315.733 277.953 315.733 283.5Z" stroke="white" stroke-opacity="0.5" stroke-width="2"/>
<path d="M457.103 224.946C457.103 230.494 452.606 234.991 447.058 234.991C441.51 234.991 437.013 230.494 437.013 224.946C437.013 219.399 441.51 214.901 447.058 214.901C452.606 214.901 457.103 219.399 457.103 224.946Z" stroke="white" stroke-opacity="0.5" stroke-width="2"/>
<path d="M339.989 342.061C339.989 347.608 335.492 352.106 329.944 352.106C324.396 352.106 319.899 347.608 319.899 342.061C319.899 336.513 324.396 332.016 329.944 332.016C335.492 332.016 339.989 336.513 339.989 342.061Z" stroke="white" stroke-opacity="0.5" stroke-width="2"/>
<path d="M457.103 342.061C457.103 347.608 452.606 352.106 447.058 352.106C441.51 352.106 437.013 347.608 437.013 342.061C437.013 336.513 441.51 332.016 447.058 332.016C452.606 332.016 457.103 336.513 457.103 342.061Z" stroke="white" stroke-opacity="0.5" stroke-width="2"/>
<path d="M339.989 224.946C339.989 230.494 335.492 234.991 329.944 234.991C324.396 234.991 319.899 230.494 319.899 224.946C319.899 219.399 324.396 214.901 329.944 214.901C335.492 214.901 339.989 219.399 339.989 224.946Z" stroke="white" stroke-opacity="0.5" stroke-width="2"/>
<mask id="path-14-inside-2" fill="white">
<path d="M150.655 86.9756C148.333 86.353 145.797 87.6752 145.13 90.1657L145.025 90.5555L134.586 87.7582C135.236 84.2694 135.58 80.6742 135.58 76.9999C135.58 73.3252 135.236 69.7297 134.586 66.2406L145.025 63.4433L145.13 63.8331C145.797 66.3239 148.333 67.6458 150.655 67.0232C153.062 66.3783 154.49 63.9044 153.845 61.4976L151.301 52.0022C150.656 49.5953 148.183 48.1666 145.775 48.8121C143.368 49.457 141.94 51.9309 142.585 54.3378L142.69 54.7276L132.247 57.5257C129.814 50.6433 126.131 44.347 121.469 38.9122L129.133 31.2479L129.419 31.5334C131.18 33.2951 134.037 33.2957 135.799 31.5334C137.561 29.7714 137.561 26.9149 135.799 25.1529L128.848 18.2018C127.086 16.4399 124.229 16.4399 122.467 18.2018C120.705 19.9638 120.705 22.8203 122.467 24.5823L122.753 24.8678L115.089 32.5317C109.653 27.8696 103.357 24.1862 96.4739 21.7532L99.2718 11.3112L99.6616 11.4156C102.162 12.0857 104.569 10.5349 105.187 8.22551C105.832 5.81865 104.404 3.34472 101.997 2.69985L92.5018 0.155535C90.0946 -0.489642 87.6207 0.939071 86.9761 3.34563C86.3312 5.75248 87.7593 8.22641 90.1662 8.87129L90.556 8.97566L87.7587 19.4152C84.27 18.7649 80.6747 18.4214 77.0004 18.4214C73.326 18.4214 69.7308 18.7649 66.242 19.4152L63.4447 8.97566L63.8346 8.87129C66.2414 8.22641 67.6695 5.75248 67.0246 3.34563C66.3801 0.93847 63.9061 -0.490244 61.4993 0.154933L52.0039 2.69925C49.5971 3.34412 48.1689 5.81805 48.8138 8.22491C49.4325 10.5346 51.8388 12.0854 54.3395 11.415L54.7293 11.3106L57.5272 21.7526C50.6444 24.1859 44.3478 27.869 38.9124 32.5311L31.2482 24.8672L31.5336 24.5817C33.2956 22.8197 33.2956 19.9632 31.5336 18.2012C29.7719 16.4393 26.9151 16.4393 25.1531 18.2012L18.2021 25.1523C16.4401 26.9143 16.4401 29.7708 18.2021 31.5328C19.964 33.2951 22.8212 33.2945 24.5825 31.5328L24.868 31.2473L32.5322 38.9116C27.8704 44.3467 24.1873 50.643 21.754 57.5251L11.3114 54.727L11.4158 54.3372C12.0607 51.9303 10.6326 49.4564 8.22573 48.8115C5.81767 48.166 3.34494 49.5947 2.70007 52.0016L0.155154 61.4979C-0.489722 63.9047 0.93839 66.3786 3.34524 67.0235C5.66728 67.6461 8.20347 66.3239 8.87091 63.8334L8.97528 63.4436L19.4148 66.2409C18.7645 69.73 18.4207 73.3255 18.4207 77.0001C18.4207 80.6745 18.7642 84.2697 19.4145 87.7585L8.97498 90.5558L8.8706 90.166C8.20317 87.6752 5.66668 86.3533 3.34494 86.9759C0.938089 87.6207 -0.490023 90.0947 0.154853 92.5015L2.69917 101.997C3.34434 104.404 5.81677 105.832 8.22483 105.187C10.6317 104.542 12.0598 102.068 11.4149 99.6613L11.3105 99.2715L21.7525 96.4737C24.1858 103.356 27.8689 109.653 32.531 115.088L24.8668 122.753L24.5813 122.467C22.82 120.706 19.9628 120.705 18.2009 122.467C16.4389 124.229 16.4389 127.086 18.2009 128.848L25.1519 135.799C26.9136 137.561 29.7704 137.561 31.5324 135.799C33.2944 134.037 33.2944 131.18 31.5324 129.418L31.247 129.133L38.9112 121.469C44.3466 126.131 50.6432 129.814 57.526 132.247L54.7281 142.689L54.3383 142.585C51.8376 141.915 49.4313 143.466 48.8126 145.775C48.1677 148.182 49.5959 150.656 52.0027 151.301L61.4981 153.845C63.9052 154.49 66.3792 153.062 67.0237 150.655C67.6686 148.248 66.2405 145.774 63.8337 145.129L63.4438 145.025L66.2411 134.585C69.7299 135.236 73.3251 135.579 76.9995 135.579C80.6738 135.579 84.2691 135.236 87.7578 134.585L90.5551 145.025L90.1653 145.129C87.7584 145.774 86.3303 148.248 86.9752 150.655C87.6201 153.062 90.0937 154.49 92.5009 153.845L101.996 151.301C104.403 150.656 105.831 148.182 105.186 145.775C104.568 143.465 102.161 141.915 99.6607 142.585L99.2708 142.689L96.473 132.247C103.356 129.814 109.652 126.131 115.088 121.469L122.752 129.133L122.467 129.418C120.705 131.18 120.705 134.037 122.467 135.799C124.228 137.561 127.085 137.561 128.847 135.799L135.798 128.848C137.56 127.086 137.56 124.229 135.798 122.467C134.036 120.705 131.179 120.706 129.418 122.467L129.132 122.753L121.468 115.088C126.13 109.653 129.813 103.356 132.246 96.4737L142.688 99.2715L142.584 99.6613C141.939 102.068 143.367 104.542 145.774 105.187C148.182 105.832 150.655 104.404 151.3 101.997L153.844 92.5015C154.49 90.0944 153.062 87.6205 150.655 86.9756V86.9756ZM77.0004 126.556C49.6753 126.556 27.4445 104.325 27.4445 77.0001C27.4445 49.675 49.6753 27.4443 77.0004 27.4443C104.325 27.4443 126.556 49.675 126.556 77.0001C126.556 104.325 104.325 126.556 77.0004 126.556Z"/>
</mask>
<path d="M150.655 86.9756C148.333 86.353 145.797 87.6752 145.13 90.1657L145.025 90.5555L134.586 87.7582C135.236 84.2694 135.58 80.6742 135.58 76.9999C135.58 73.3252 135.236 69.7297 134.586 66.2406L145.025 63.4433L145.13 63.8331C145.797 66.3239 148.333 67.6458 150.655 67.0232C153.062 66.3783 154.49 63.9044 153.845 61.4976L151.301 52.0022C150.656 49.5953 148.183 48.1666 145.775 48.8121C143.368 49.457 141.94 51.9309 142.585 54.3378L142.69 54.7276L132.247 57.5257C129.814 50.6433 126.131 44.347 121.469 38.9122L129.133 31.2479L129.419 31.5334C131.18 33.2951 134.037 33.2957 135.799 31.5334C137.561 29.7714 137.561 26.9149 135.799 25.1529L128.848 18.2018C127.086 16.4399 124.229 16.4399 122.467 18.2018C120.705 19.9638 120.705 22.8203 122.467 24.5823L122.753 24.8678L115.089 32.5317C109.653 27.8696 103.357 24.1862 96.4739 21.7532L99.2718 11.3112L99.6616 11.4156C102.162 12.0857 104.569 10.5349 105.187 8.22551C105.832 5.81865 104.404 3.34472 101.997 2.69985L92.5018 0.155535C90.0946 -0.489642 87.6207 0.939071 86.9761 3.34563C86.3312 5.75248 87.7593 8.22641 90.1662 8.87129L90.556 8.97566L87.7587 19.4152C84.27 18.7649 80.6747 18.4214 77.0004 18.4214C73.326 18.4214 69.7308 18.7649 66.242 19.4152L63.4447 8.97566L63.8346 8.87129C66.2414 8.22641 67.6695 5.75248 67.0246 3.34563C66.3801 0.93847 63.9061 -0.490244 61.4993 0.154933L52.0039 2.69925C49.5971 3.34412 48.1689 5.81805 48.8138 8.22491C49.4325 10.5346 51.8388 12.0854 54.3395 11.415L54.7293 11.3106L57.5272 21.7526C50.6444 24.1859 44.3478 27.869 38.9124 32.5311L31.2482 24.8672L31.5336 24.5817C33.2956 22.8197 33.2956 19.9632 31.5336 18.2012C29.7719 16.4393 26.9151 16.4393 25.1531 18.2012L18.2021 25.1523C16.4401 26.9143 16.4401 29.7708 18.2021 31.5328C19.964 33.2951 22.8212 33.2945 24.5825 31.5328L24.868 31.2473L32.5322 38.9116C27.8704 44.3467 24.1873 50.643 21.754 57.5251L11.3114 54.727L11.4158 54.3372C12.0607 51.9303 10.6326 49.4564 8.22573 48.8115C5.81767 48.166 3.34494 49.5947 2.70007 52.0016L0.155154 61.4979C-0.489722 63.9047 0.93839 66.3786 3.34524 67.0235C5.66728 67.6461 8.20347 66.3239 8.87091 63.8334L8.97528 63.4436L19.4148 66.2409C18.7645 69.73 18.4207 73.3255 18.4207 77.0001C18.4207 80.6745 18.7642 84.2697 19.4145 87.7585L8.97498 90.5558L8.8706 90.166C8.20317 87.6752 5.66668 86.3533 3.34494 86.9759C0.938089 87.6207 -0.490023 90.0947 0.154853 92.5015L2.69917 101.997C3.34434 104.404 5.81677 105.832 8.22483 105.187C10.6317 104.542 12.0598 102.068 11.4149 99.6613L11.3105 99.2715L21.7525 96.4737C24.1858 103.356 27.8689 109.653 32.531 115.088L24.8668 122.753L24.5813 122.467C22.82 120.706 19.9628 120.705 18.2009 122.467C16.4389 124.229 16.4389 127.086 18.2009 128.848L25.1519 135.799C26.9136 137.561 29.7704 137.561 31.5324 135.799C33.2944 134.037 33.2944 131.18 31.5324 129.418L31.247 129.133L38.9112 121.469C44.3466 126.131 50.6432 129.814 57.526 132.247L54.7281 142.689L54.3383 142.585C51.8376 141.915 49.4313 143.466 48.8126 145.775C48.1677 148.182 49.5959 150.656 52.0027 151.301L61.4981 153.845C63.9052 154.49 66.3792 153.062 67.0237 150.655C67.6686 148.248 66.2405 145.774 63.8337 145.129L63.4438 145.025L66.2411 134.585C69.7299 135.236 73.3251 135.579 76.9995 135.579C80.6738 135.579 84.2691 135.236 87.7578 134.585L90.5551 145.025L90.1653 145.129C87.7584 145.774 86.3303 148.248 86.9752 150.655C87.6201 153.062 90.0937 154.49 92.5009 153.845L101.996 151.301C104.403 150.656 105.831 148.182 105.186 145.775C104.568 143.465 102.161 141.915 99.6607 142.585L99.2708 142.689L96.473 132.247C103.356 129.814 109.652 126.131 115.088 121.469L122.752 129.133L122.467 129.418C120.705 131.18 120.705 134.037 122.467 135.799C124.228 137.561 127.085 137.561 128.847 135.799L135.798 128.848C137.56 127.086 137.56 124.229 135.798 122.467C134.036 120.705 131.179 120.706 129.418 122.467L129.132 122.753L121.468 115.088C126.13 109.653 129.813 103.356 132.246 96.4737L142.688 99.2715L142.584 99.6613C141.939 102.068 143.367 104.542 145.774 105.187C148.182 105.832 150.655 104.404 151.3 101.997L153.844 92.5015C154.49 90.0944 153.062 87.6205 150.655 86.9756V86.9756ZM77.0004 126.556C49.6753 126.556 27.4445 104.325 27.4445 77.0001C27.4445 49.675 49.6753 27.4443 77.0004 27.4443C104.325 27.4443 126.556 49.675 126.556 77.0001C126.556 104.325 104.325 126.556 77.0004 126.556Z" stroke="white" stroke-opacity="0.5" stroke-width="2" mask="url(#path-14-inside-2)"/>
<path d="M81.0117 43.1721C81.0117 45.3877 79.2156 47.1839 77 47.1839C74.7844 47.1839 72.9883 45.3877 72.9883 43.1721C72.9883 40.9565 74.7844 39.1604 77 39.1604C79.2156 39.1604 81.0117 40.9565 81.0117 43.1721Z" stroke="white" stroke-opacity="0.5"/>
<path d="M81.0117 110.828C81.0117 113.044 79.2156 114.84 77 114.84C74.7844 114.84 72.9883 113.044 72.9883 110.828C72.9883 108.613 74.7844 106.817 77 106.817C79.2156 106.817 81.0117 108.613 81.0117 110.828Z" stroke="white" stroke-opacity="0.5"/>
<path d="M71.3469 86.6652C71.3469 88.8808 69.5508 90.6769 67.3352 90.6769C65.1196 90.6769 63.3235 88.8808 63.3235 86.6652C63.3235 84.4496 65.1196 82.6534 67.3352 82.6534C69.5508 82.6534 71.3469 84.4496 71.3469 86.6652Z" stroke="white" stroke-opacity="0.5"/>
<path d="M90.677 86.6652C90.677 88.8808 88.8809 90.6769 86.6653 90.6769C84.4497 90.6769 82.6536 88.8808 82.6536 86.6652C82.6536 84.4496 84.4497 82.6534 86.6653 82.6534C88.8809 82.6534 90.677 84.4496 90.677 86.6652Z" stroke="white" stroke-opacity="0.5"/>
<path d="M90.677 67.3352C90.677 69.5508 88.8809 71.3469 86.6653 71.3469C84.4497 71.3469 82.6536 69.5508 82.6536 67.3352C82.6536 65.1196 84.4497 63.3235 86.6653 63.3235C88.8809 63.3235 90.677 65.1196 90.677 67.3352Z" stroke="white" stroke-opacity="0.5"/>
<path d="M71.3469 67.3352C71.3469 69.5508 69.5508 71.3469 67.3352 71.3469C65.1196 71.3469 63.3235 69.5508 63.3235 67.3352C63.3235 65.1196 65.1196 63.3235 67.3352 63.3235C69.5508 63.3235 71.3469 65.1196 71.3469 67.3352Z" stroke="white" stroke-opacity="0.5"/>
<path d="M114.841 77C114.841 79.2156 113.045 81.0117 110.829 81.0117C108.613 81.0117 106.817 79.2156 106.817 77C106.817 74.7844 108.613 72.9883 110.829 72.9883C113.045 72.9883 114.841 74.7844 114.841 77Z" stroke="white" stroke-opacity="0.5"/>
<path d="M47.1841 77C47.1841 79.2156 45.388 81.0117 43.1724 81.0117C40.9568 81.0117 39.1606 79.2156 39.1606 77C39.1606 74.7844 40.9568 72.9883 43.1724 72.9883C45.388 72.9883 47.1841 74.7844 47.1841 77Z" stroke="white" stroke-opacity="0.5"/>
<path d="M104.932 53.0816C104.932 55.2972 103.136 57.0933 100.92 57.0933C98.7043 57.0933 96.9082 55.2972 96.9082 53.0816C96.9082 50.8659 98.7043 49.0698 100.92 49.0698C103.136 49.0698 104.932 50.8659 104.932 53.0816Z" stroke="white" stroke-opacity="0.5"/>
<path d="M57.0923 100.921C57.0923 103.137 55.2962 104.933 53.0806 104.933C50.865 104.933 49.0688 103.137 49.0688 100.921C49.0688 98.7057 50.865 96.9095 53.0806 96.9095C55.2962 96.9095 57.0923 98.7057 57.0923 100.921Z" stroke="white" stroke-opacity="0.5"/>
<path d="M104.932 100.921C104.932 103.137 103.136 104.933 100.92 104.933C98.7043 104.933 96.9082 103.137 96.9082 100.921C96.9082 98.7057 98.7043 96.9095 100.92 96.9095C103.136 96.9095 104.932 98.7057 104.932 100.921Z" stroke="white" stroke-opacity="0.5"/>
<path d="M57.0923 53.0816C57.0923 55.2972 55.2962 57.0933 53.0806 57.0933C50.865 57.0933 49.0688 55.2972 49.0688 53.0816C49.0688 50.8659 50.865 49.0698 53.0806 49.0698C55.2962 49.0698 57.0923 50.8659 57.0923 53.0816Z" stroke="white" stroke-opacity="0.5"/>
</svg>
